<svg xmlns="http://www.w3.org/2000/svg" xmlns:xlink="http://www.w3.org/1999/xlink" zoomAndPan="magnify" preserveAspectRatio="xMidYMid meet" version="1.0" viewBox="15.64 170.33 337.21 36.47"><defs><g/><clipPath id="9453e51ff3"><path d="M 24 40 L 36.835938 40 L 36.835938 52.945312 L 24 52.945312 Z M 24 40 " clip-rule="nonzero"/></clipPath><clipPath id="4d79dbed84"><path d="M 24 16.707031 L 36.835938 16.707031 L 36.835938 30 L 24 30 Z M 24 16.707031 " clip-rule="nonzero"/></clipPath><clipPath id="d2ec9e7e08"><path d="M 0.601562 40 L 14 40 L 14 52.945312 L 0.601562 52.945312 Z M 0.601562 40 " clip-rule="nonzero"/></clipPath><clipPath id="4a06b0cb3b"><path d="M 0.601562 16.707031 L 14 16.707031 L 14 30 L 0.601562 30 Z M 0.601562 16.707031 " clip-rule="nonzero"/></clipPath><clipPath id="6c3896fb26"><path d="M 11.898438 27.671875 L 25.488281 27.671875 L 25.488281 41.261719 L 11.898438 41.261719 Z M 11.898438 27.671875 " clip-rule="nonzero"/></clipPath><clipPath id="492d0514f7"><path d="M 40 0.078125 L 341.160156 0.078125 L 341.160156 67.039062 L 40 67.039062 Z M 40 0.078125 " clip-rule="nonzero"/></clipPath><clipPath id="4dcb1d0558"><rect x="0" width="302" y="0" height="68"/></clipPath><clipPath id="403e95766c"><rect x="0" width="342" y="0" height="68"/></clipPath></defs><g transform="matrix(1, 0, 0, 1, 15, 154)"><g clip-path="url(#403e95766c)"><g clip-path="url(#9453e51ff3)"><path fill="#00674f" d="M 30 52.65625 L 24.160156 52.65625 L 24.160156 48.875 L 30 48.875 C 30.386719 48.875 30.757812 48.800781 31.117188 48.65625 C 31.472656 48.507812 31.789062 48.296875 32.0625 48.023438 C 32.335938 47.746094 32.546875 47.433594 32.695312 47.074219 C 32.84375 46.71875 32.917969 46.34375 32.917969 45.957031 L 32.917969 40.117188 L 36.695312 40.117188 L 36.695312 45.957031 C 36.695312 46.398438 36.652344 46.832031 36.566406 47.261719 C 36.480469 47.695312 36.351562 48.113281 36.183594 48.519531 C 36.015625 48.925781 35.808594 49.3125 35.566406 49.675781 C 35.320312 50.042969 35.042969 50.378906 34.734375 50.691406 C 34.421875 51 34.082031 51.277344 33.71875 51.523438 C 33.351562 51.769531 32.96875 51.972656 32.5625 52.144531 C 32.15625 52.3125 31.738281 52.4375 31.304688 52.523438 C 30.875 52.609375 30.4375 52.652344 30 52.65625 Z M 30 52.65625 " fill-opacity="1" fill-rule="nonzero"/></g><g clip-path="url(#4d79dbed84)"><path fill="#00674f" d="M 36.695312 29.128906 L 32.917969 29.128906 L 32.917969 23.289062 C 32.917969 22.902344 32.84375 22.53125 32.695312 22.171875 C 32.546875 21.816406 32.335938 21.5 32.0625 21.226562 C 31.789062 20.953125 31.472656 20.742188 31.117188 20.59375 C 30.757812 20.445312 30.386719 20.371094 30 20.371094 L 24.160156 20.371094 L 24.160156 16.59375 L 30 16.59375 C 30.4375 16.59375 30.875 16.636719 31.304688 16.722656 C 31.738281 16.808594 32.15625 16.9375 32.5625 17.105469 C 32.96875 17.273438 33.351562 17.480469 33.71875 17.722656 C 34.082031 17.96875 34.421875 18.246094 34.734375 18.558594 C 35.042969 18.867188 35.320312 19.207031 35.566406 19.570312 C 35.808594 19.9375 36.015625 20.324219 36.183594 20.730469 C 36.351562 21.136719 36.480469 21.554688 36.566406 21.984375 C 36.652344 22.414062 36.695312 22.851562 36.695312 23.289062 Z M 36.695312 29.128906 " fill-opacity="1" fill-rule="nonzero"/></g><g clip-path="url(#d2ec9e7e08)"><path fill="#00674f" d="M 13.171875 52.65625 L 7.332031 52.65625 C 6.894531 52.652344 6.457031 52.609375 6.027344 52.523438 C 5.59375 52.4375 5.175781 52.3125 4.769531 52.144531 C 4.363281 51.972656 3.980469 51.769531 3.613281 51.523438 C 3.25 51.277344 2.910156 51 2.597656 50.691406 C 2.289062 50.378906 2.011719 50.042969 1.765625 49.675781 C 1.523438 49.3125 1.316406 48.925781 1.148438 48.519531 C 0.980469 48.113281 0.851562 47.695312 0.765625 47.261719 C 0.679688 46.832031 0.636719 46.398438 0.636719 45.957031 L 0.636719 40.117188 L 4.414062 40.117188 L 4.414062 45.957031 C 4.414062 46.34375 4.488281 46.71875 4.636719 47.074219 C 4.785156 47.433594 4.996094 47.746094 5.269531 48.023438 C 5.542969 48.296875 5.859375 48.507812 6.214844 48.65625 C 6.574219 48.800781 6.945312 48.875 7.332031 48.875 L 13.171875 48.875 Z M 13.171875 52.65625 " fill-opacity="1" fill-rule="nonzero"/></g><g clip-path="url(#4a06b0cb3b)"><path fill="#00674f" d="M 4.414062 29.128906 L 0.636719 29.128906 L 0.636719 23.289062 C 0.636719 22.851562 0.679688 22.414062 0.765625 21.984375 C 0.851562 21.554688 0.980469 21.136719 1.148438 20.730469 C 1.316406 20.324219 1.523438 19.9375 1.765625 19.570312 C 2.011719 19.207031 2.289062 18.867188 2.597656 18.558594 C 2.910156 18.246094 3.25 17.96875 3.613281 17.722656 C 3.980469 17.480469 4.363281 17.273438 4.769531 17.105469 C 5.175781 16.9375 5.59375 16.808594 6.027344 16.722656 C 6.457031 16.636719 6.894531 16.59375 7.332031 16.59375 L 13.171875 16.59375 L 13.171875 20.371094 L 7.332031 20.371094 C 6.945312 20.371094 6.574219 20.445312 6.214844 20.59375 C 5.859375 20.742188 5.542969 20.953125 5.269531 21.226562 C 4.996094 21.5 4.785156 21.816406 4.636719 22.171875 C 4.488281 22.53125 4.414062 22.902344 4.414062 23.289062 Z M 4.414062 29.128906 " fill-opacity="1" fill-rule="nonzero"/></g><g clip-path="url(#6c3896fb26)"><path fill="#ff5757" d="M 17.347656 27.660156 L 17.347656 33.082031 L 11.925781 33.082031 L 11.925781 35.796875 L 17.347656 35.796875 L 17.347656 41.21875 L 20.0625 41.21875 L 20.0625 35.796875 L 25.484375 35.796875 L 25.484375 33.082031 L 20.0625 33.082031 L 20.0625 27.660156 Z M 17.347656 27.660156 " fill-opacity="1" fill-rule="nonzero"/></g><g clip-path="url(#492d0514f7)"><g transform="matrix(1, 0, 0, 1, 40, 0)"><g clip-path="url(#4dcb1d0558)"><g fill="#373643" fill-opacity="1"><g transform="translate(0.930876, 52.232844)"><g><path d="M 16.375 -35.359375 C 19.738281 -35.359375 22.675781 -34.613281 25.1875 -33.125 C 27.707031 -31.644531 29.671875 -29.582031 31.078125 -26.9375 C 32.484375 -24.300781 33.1875 -21.207031 33.1875 -17.65625 C 33.1875 -14.132812 32.484375 -11.039062 31.078125 -8.375 C 29.671875 -5.71875 27.707031 -3.65625 25.1875 -2.1875 C 22.675781 -0.726562 19.738281 0 16.375 0 L 4.9375 0 C 3.9375 0 3.078125 -0.320312 2.359375 -0.96875 C 1.640625 -1.613281 1.28125 -2.382812 1.28125 -3.28125 L 1.28125 -32.140625 C 1.28125 -33.023438 1.640625 -33.78125 2.359375 -34.40625 C 3.078125 -35.039062 3.9375 -35.359375 4.9375 -35.359375 Z M 16.375 -5.5 C 18.445312 -5.5 20.269531 -6.003906 21.84375 -7.015625 C 23.414062 -8.035156 24.632812 -9.453125 25.5 -11.265625 C 26.375 -13.078125 26.8125 -15.207031 26.8125 -17.65625 C 26.8125 -20.09375 26.375 -22.234375 25.5 -24.078125 C 24.632812 -25.929688 23.414062 -27.367188 21.84375 -28.390625 C 20.269531 -29.410156 18.445312 -29.921875 16.375 -29.921875 L 7.609375 -29.921875 L 7.609375 -5.5 Z M 16.375 -5.5 "/></g></g></g><g fill="#373643" fill-opacity="1"><g transform="translate(35.284726, 52.232844)"><g><path d="M 15.875 -4.9375 C 16.945312 -4.9375 18 -5.082031 19.03125 -5.375 C 20.070312 -5.675781 21.035156 -6.175781 21.921875 -6.875 C 22.773438 -7.65625 23.609375 -8.015625 24.421875 -7.953125 C 25.234375 -7.898438 25.90625 -7.601562 26.4375 -7.0625 C 26.976562 -6.53125 27.25 -5.867188 27.25 -5.078125 C 27.25 -4.285156 26.859375 -3.519531 26.078125 -2.78125 C 24.785156 -1.519531 23.25 -0.640625 21.46875 -0.140625 C 19.695312 0.359375 17.890625 0.59375 16.046875 0.5625 C 13.148438 0.5625 10.601562 -0.03125 8.40625 -1.21875 C 6.207031 -2.40625 4.488281 -4.050781 3.25 -6.15625 C 2.007812 -8.269531 1.390625 -10.710938 1.390625 -13.484375 C 1.390625 -16.515625 1.976562 -19.175781 3.15625 -21.46875 C 4.34375 -23.769531 6.019531 -25.566406 8.1875 -26.859375 C 10.351562 -28.148438 12.914062 -28.796875 15.875 -28.796875 C 18.832031 -28.796875 21.347656 -28.195312 23.421875 -27 C 25.492188 -25.800781 27.070312 -24.117188 28.15625 -21.953125 C 29.25 -19.785156 29.796875 -17.257812 29.796875 -14.375 C 29.796875 -13.445312 29.609375 -12.660156 29.234375 -12.015625 C 28.867188 -11.367188 27.894531 -11.046875 26.3125 -11.046875 L 7.828125 -11.046875 C 8.347656 -9.234375 9.328125 -7.757812 10.765625 -6.625 C 12.210938 -5.5 13.914062 -4.9375 15.875 -4.9375 Z M 15.921875 -23.3125 C 13.773438 -23.3125 11.976562 -22.632812 10.53125 -21.28125 C 9.09375 -19.9375 8.171875 -18.171875 7.765625 -15.984375 L 23.921875 -15.984375 C 23.734375 -18.171875 23.007812 -19.9375 21.75 -21.28125 C 20.5 -22.632812 18.554688 -23.3125 15.921875 -23.3125 Z M 15.921875 -23.3125 "/></g></g></g><g fill="#373643" fill-opacity="1"><g transform="translate(67.529609, 52.232844)"><g><path d="M 14.984375 -28.25 C 15.984375 -28.25 16.78125 -28.035156 17.375 -27.609375 C 17.96875 -27.179688 18.265625 -26.488281 18.265625 -25.53125 C 18.265625 -24.644531 17.96875 -23.941406 17.375 -23.421875 C 16.78125 -22.898438 15.984375 -22.640625 14.984375 -22.640625 C 12.648438 -22.640625 11.007812 -21.804688 10.0625 -20.140625 C 9.125 -18.484375 8.65625 -16.226562 8.65625 -13.375 L 8.65625 -2.828125 C 8.65625 -2.015625 8.359375 -1.335938 7.765625 -0.796875 C 7.171875 -0.265625 6.453125 0 5.609375 0 C 4.640625 0 3.859375 -0.265625 3.265625 -0.796875 C 2.679688 -1.335938 2.390625 -2.015625 2.390625 -2.828125 L 2.390625 -25.421875 C 2.390625 -26.304688 2.726562 -27 3.40625 -27.5 C 4.09375 -28 4.828125 -28.25 5.609375 -28.25 C 6.378906 -28.25 7.078125 -28.007812 7.703125 -27.53125 C 8.335938 -27.050781 8.65625 -26.347656 8.65625 -25.421875 L 8.65625 -25.09375 C 9.46875 -26.164062 10.410156 -26.957031 11.484375 -27.46875 C 12.554688 -27.988281 13.722656 -28.25 14.984375 -28.25 Z M 14.984375 -28.25 "/></g></g></g><g fill="#373643" fill-opacity="1"><g transform="translate(84.123689, 52.232844)"><g><path d="M 40.625 -28.796875 C 43.21875 -28.796875 45.421875 -28.234375 47.234375 -27.109375 C 49.046875 -25.984375 50.429688 -24.410156 51.390625 -22.390625 C 52.359375 -20.378906 52.84375 -18.039062 52.84375 -15.375 L 52.84375 -2.890625 C 52.84375 -2.035156 52.570312 -1.335938 52.03125 -0.796875 C 51.488281 -0.265625 50.703125 0 49.671875 0 C 48.742188 0 47.984375 -0.265625 47.390625 -0.796875 C 46.804688 -1.335938 46.515625 -2.035156 46.515625 -2.890625 L 46.515625 -15.484375 C 46.515625 -17.773438 45.96875 -19.640625 44.875 -21.078125 C 43.78125 -22.523438 42.066406 -23.25 39.734375 -23.25 C 38.554688 -23.25 37.304688 -22.878906 35.984375 -22.140625 C 34.671875 -21.398438 33.5625 -20.328125 32.65625 -18.921875 C 31.75 -17.515625 31.296875 -15.796875 31.296875 -13.765625 L 31.296875 -2.890625 C 31.296875 -2.035156 31.023438 -1.335938 30.484375 -0.796875 C 29.953125 -0.265625 29.1875 0 28.1875 0 C 27.269531 0 26.503906 -0.265625 25.890625 -0.796875 C 25.273438 -1.335938 24.96875 -2.035156 24.96875 -2.890625 L 24.96875 -15.484375 C 24.96875 -17.773438 24.421875 -19.640625 23.328125 -21.078125 C 22.242188 -22.523438 20.535156 -23.25 18.203125 -23.25 C 17.503906 -23.25 16.691406 -23.054688 15.765625 -22.671875 C 14.835938 -22.285156 13.925781 -21.703125 13.03125 -20.921875 C 12.144531 -20.148438 11.414062 -19.171875 10.84375 -17.984375 C 10.269531 -16.796875 9.984375 -15.390625 9.984375 -13.765625 L 9.984375 -2.78125 C 9.984375 -1.851562 9.648438 -1.15625 8.984375 -0.6875 C 8.316406 -0.226562 7.597656 0 6.828125 0 C 6.015625 0 5.289062 -0.226562 4.65625 -0.6875 C 4.03125 -1.15625 3.71875 -1.851562 3.71875 -2.78125 L 3.71875 -25.421875 C 3.71875 -26.191406 4.019531 -26.851562 4.625 -27.40625 C 5.238281 -27.96875 5.972656 -28.25 6.828125 -28.25 C 7.785156 -28.25 8.550781 -27.96875 9.125 -27.40625 C 9.695312 -26.851562 9.984375 -26.191406 9.984375 -25.421875 L 9.984375 -25.25 C 11.503906 -26.695312 13.054688 -27.648438 14.640625 -28.109375 C 16.234375 -28.566406 17.734375 -28.796875 19.140625 -28.796875 C 21.472656 -28.796875 23.488281 -28.320312 25.1875 -27.375 C 26.894531 -26.4375 28.25 -25.15625 29.25 -23.53125 C 30.394531 -24.9375 31.632812 -26.019531 32.96875 -26.78125 C 34.300781 -27.539062 35.632812 -28.066406 36.96875 -28.359375 C 38.300781 -28.648438 39.519531 -28.796875 40.625 -28.796875 Z M 40.625 -28.796875 "/></g></g></g><g fill="#373643" fill-opacity="1"><g transform="translate(141.287752, 52.232844)"><g><path d="M 25.8125 -28.25 C 26.769531 -28.25 27.535156 -27.976562 28.109375 -27.4375 C 28.679688 -26.90625 28.96875 -26.210938 28.96875 -25.359375 L 28.96875 -2.890625 C 28.96875 -2.035156 28.679688 -1.335938 28.109375 -0.796875 C 27.535156 -0.265625 26.769531 0 25.8125 0 C 24.882812 0 24.160156 -0.210938 23.640625 -0.640625 C 23.117188 -1.066406 22.804688 -1.628906 22.703125 -2.328125 C 21.441406 -1.328125 20.035156 -0.59375 18.484375 -0.125 C 16.929688 0.332031 15.453125 0.5625 14.046875 0.5625 C 11.378906 0.5625 9.070312 -0.046875 7.125 -1.265625 C 5.1875 -2.492188 3.695312 -4.21875 2.65625 -6.4375 C 1.625 -8.65625 1.109375 -11.242188 1.109375 -14.203125 C 1.109375 -17.085938 1.679688 -19.625 2.828125 -21.8125 C 3.972656 -24 5.570312 -25.707031 7.625 -26.9375 C 9.6875 -28.175781 12.066406 -28.796875 14.765625 -28.796875 C 15.941406 -28.796875 17.253906 -28.570312 18.703125 -28.125 C 20.148438 -27.6875 21.484375 -26.988281 22.703125 -26.03125 C 22.847656 -26.695312 23.175781 -27.234375 23.6875 -27.640625 C 24.207031 -28.046875 24.914062 -28.25 25.8125 -28.25 Z M 14.703125 -5.046875 C 16.335938 -5.046875 17.910156 -5.40625 19.421875 -6.125 C 20.941406 -6.851562 22.015625 -7.921875 22.640625 -9.328125 L 22.640625 -18.921875 C 21.941406 -20.296875 20.890625 -21.351562 19.484375 -22.09375 C 18.078125 -22.832031 16.648438 -23.203125 15.203125 -23.203125 C 12.867188 -23.203125 10.988281 -22.347656 9.5625 -20.640625 C 8.144531 -18.941406 7.4375 -16.78125 7.4375 -14.15625 C 7.4375 -11.414062 8.101562 -9.210938 9.4375 -7.546875 C 10.769531 -5.878906 12.523438 -5.046875 14.703125 -5.046875 Z M 14.703125 -5.046875 "/></g></g></g><g fill="#373643" fill-opacity="1"><g transform="translate(173.366134, 52.232844)"><g><path d="M 0.390625 -8.375 C 0.128906 -9.445312 0.382812 -10.296875 1.15625 -10.921875 C 1.9375 -11.554688 2.8125 -11.875 3.78125 -11.875 C 4.519531 -11.875 5.175781 -11.695312 5.75 -11.34375 C 6.320312 -11 6.679688 -10.457031 6.828125 -9.71875 C 7.234375 -8.53125 8 -7.613281 9.125 -6.96875 C 10.257812 -6.320312 11.53125 -5.875 12.9375 -5.625 C 14.34375 -5.382812 15.65625 -5.265625 16.875 -5.265625 C 17.832031 -5.265625 18.882812 -5.335938 20.03125 -5.484375 C 21.175781 -5.640625 22.265625 -5.910156 23.296875 -6.296875 C 24.335938 -6.679688 25.191406 -7.222656 25.859375 -7.921875 C 26.523438 -8.628906 26.859375 -9.539062 26.859375 -10.65625 C 26.859375 -11.84375 26.367188 -12.710938 25.390625 -13.265625 C 24.410156 -13.816406 23.160156 -14.210938 21.640625 -14.453125 C 20.128906 -14.691406 18.539062 -14.867188 16.875 -14.984375 C 14.988281 -15.128906 13.09375 -15.347656 11.1875 -15.640625 C 9.28125 -15.941406 7.539062 -16.425781 5.96875 -17.09375 C 4.394531 -17.757812 3.125 -18.726562 2.15625 -20 C 1.195312 -21.28125 0.71875 -22.976562 0.71875 -25.09375 C 0.71875 -26.976562 1.195312 -28.601562 2.15625 -29.96875 C 3.125 -31.34375 4.382812 -32.460938 5.9375 -33.328125 C 7.488281 -34.191406 9.171875 -34.835938 10.984375 -35.265625 C 12.796875 -35.691406 14.570312 -35.90625 16.3125 -35.90625 C 18.238281 -35.90625 20.253906 -35.679688 22.359375 -35.234375 C 24.472656 -34.796875 26.40625 -34.007812 28.15625 -32.875 C 29.914062 -31.75 31.222656 -30.171875 32.078125 -28.140625 C 32.367188 -27.097656 32.15625 -26.234375 31.4375 -25.546875 C 30.71875 -24.867188 29.878906 -24.53125 28.921875 -24.53125 C 28.328125 -24.53125 27.757812 -24.664062 27.21875 -24.9375 C 26.6875 -25.21875 26.304688 -25.597656 26.078125 -26.078125 C 25.640625 -27.234375 24.863281 -28.085938 23.75 -28.640625 C 22.644531 -29.191406 21.425781 -29.550781 20.09375 -29.71875 C 18.757812 -29.882812 17.519531 -29.96875 16.375 -29.96875 C 15.632812 -29.96875 14.753906 -29.894531 13.734375 -29.75 C 12.710938 -29.601562 11.722656 -29.34375 10.765625 -28.96875 C 9.804688 -28.601562 9 -28.09375 8.34375 -27.4375 C 7.695312 -26.789062 7.375 -25.988281 7.375 -25.03125 C 7.375 -23.84375 7.835938 -22.953125 8.765625 -22.359375 C 9.691406 -21.773438 10.921875 -21.367188 12.453125 -21.140625 C 13.992188 -20.921875 15.671875 -20.738281 17.484375 -20.59375 C 19.410156 -20.40625 21.320312 -20.191406 23.21875 -19.953125 C 25.125 -19.710938 26.851562 -19.285156 28.40625 -18.671875 C 29.96875 -18.066406 31.207031 -17.144531 32.125 -15.90625 C 33.050781 -14.664062 33.515625 -12.9375 33.515625 -10.71875 C 33.515625 -8.488281 32.988281 -6.648438 31.9375 -5.203125 C 30.882812 -3.765625 29.503906 -2.617188 27.796875 -1.765625 C 26.097656 -0.921875 24.285156 -0.320312 22.359375 0.03125 C 20.441406 0.382812 18.613281 0.5625 16.875 0.5625 C 15.425781 0.5625 13.847656 0.421875 12.140625 0.140625 C 10.441406 -0.140625 8.785156 -0.617188 7.171875 -1.296875 C 5.566406 -1.984375 4.15625 -2.898438 2.9375 -4.046875 C 1.71875 -5.191406 0.867188 -6.632812 0.390625 -8.375 Z M 0.390625 -8.375 "/></g></g></g><g fill="#373643" fill-opacity="1"><g transform="translate(207.10949, 52.232844)"><g><path d="M 21.921875 -20.640625 C 21.066406 -21.640625 20.066406 -22.34375 18.921875 -22.75 C 17.773438 -23.15625 16.648438 -23.359375 15.546875 -23.359375 C 13.097656 -23.359375 11.132812 -22.515625 9.65625 -20.828125 C 8.175781 -19.148438 7.4375 -16.890625 7.4375 -14.046875 C 7.4375 -11.304688 8.203125 -9.101562 9.734375 -7.4375 C 11.273438 -5.769531 13.285156 -4.9375 15.765625 -4.9375 C 16.867188 -4.9375 17.992188 -5.128906 19.140625 -5.515625 C 20.296875 -5.910156 21.316406 -6.550781 22.203125 -7.4375 C 23.015625 -8.25 23.816406 -8.671875 24.609375 -8.703125 C 25.410156 -8.742188 26.066406 -8.523438 26.578125 -8.046875 C 27.097656 -7.566406 27.382812 -6.945312 27.4375 -6.1875 C 27.5 -5.425781 27.175781 -4.660156 26.46875 -3.890625 C 25.03125 -2.296875 23.375 -1.15625 21.5 -0.46875 C 19.632812 0.21875 17.703125 0.5625 15.703125 0.5625 C 12.785156 0.5625 10.222656 -0.046875 8.015625 -1.265625 C 5.816406 -2.492188 4.101562 -4.195312 2.875 -6.375 C 1.65625 -8.5625 1.046875 -11.097656 1.046875 -13.984375 C 1.046875 -16.984375 1.644531 -19.59375 2.84375 -21.8125 C 4.050781 -24.03125 5.75 -25.75 7.9375 -26.96875 C 10.125 -28.1875 12.660156 -28.796875 15.546875 -28.796875 C 17.578125 -28.796875 19.46875 -28.484375 21.21875 -27.859375 C 22.976562 -27.234375 24.597656 -26.050781 26.078125 -24.3125 C 26.742188 -23.53125 27.03125 -22.769531 26.9375 -22.03125 C 26.851562 -21.289062 26.53125 -20.679688 25.96875 -20.203125 C 25.414062 -19.722656 24.757812 -19.488281 24 -19.5 C 23.238281 -19.519531 22.546875 -19.898438 21.921875 -20.640625 Z M 21.921875 -20.640625 "/></g></g></g><g fill="#373643" fill-opacity="1"><g transform="translate(234.858939, 52.232844)"><g><path d="M 25.8125 -28.25 C 26.769531 -28.25 27.535156 -27.976562 28.109375 -27.4375 C 28.679688 -26.90625 28.96875 -26.210938 28.96875 -25.359375 L 28.96875 -2.890625 C 28.96875 -2.035156 28.679688 -1.335938 28.109375 -0.796875 C 27.535156 -0.265625 26.769531 0 25.8125 0 C 24.882812 0 24.160156 -0.210938 23.640625 -0.640625 C 23.117188 -1.066406 22.804688 -1.628906 22.703125 -2.328125 C 21.441406 -1.328125 20.035156 -0.59375 18.484375 -0.125 C 16.929688 0.332031 15.453125 0.5625 14.046875 0.5625 C 11.378906 0.5625 9.070312 -0.046875 7.125 -1.265625 C 5.1875 -2.492188 3.695312 -4.21875 2.65625 -6.4375 C 1.625 -8.65625 1.109375 -11.242188 1.109375 -14.203125 C 1.109375 -17.085938 1.679688 -19.625 2.828125 -21.8125 C 3.972656 -24 5.570312 -25.707031 7.625 -26.9375 C 9.6875 -28.175781 12.066406 -28.796875 14.765625 -28.796875 C 15.941406 -28.796875 17.253906 -28.570312 18.703125 -28.125 C 20.148438 -27.6875 21.484375 -26.988281 22.703125 -26.03125 C 22.847656 -26.695312 23.175781 -27.234375 23.6875 -27.640625 C 24.207031 -28.046875 24.914062 -28.25 25.8125 -28.25 Z M 14.703125 -5.046875 C 16.335938 -5.046875 17.910156 -5.40625 19.421875 -6.125 C 20.941406 -6.851562 22.015625 -7.921875 22.640625 -9.328125 L 22.640625 -18.921875 C 21.941406 -20.296875 20.890625 -21.351562 19.484375 -22.09375 C 18.078125 -22.832031 16.648438 -23.203125 15.203125 -23.203125 C 12.867188 -23.203125 10.988281 -22.347656 9.5625 -20.640625 C 8.144531 -18.941406 7.4375 -16.78125 7.4375 -14.15625 C 7.4375 -11.414062 8.101562 -9.210938 9.4375 -7.546875 C 10.769531 -5.878906 12.523438 -5.046875 14.703125 -5.046875 Z M 14.703125 -5.046875 "/></g></g></g><g fill="#373643" fill-opacity="1"><g transform="translate(266.937321, 52.232844)"><g><path d="M 18.703125 -28.796875 C 21.296875 -28.796875 23.5 -28.234375 25.3125 -27.109375 C 27.125 -25.984375 28.507812 -24.421875 29.46875 -22.421875 C 30.425781 -20.421875 30.90625 -18.085938 30.90625 -15.421875 L 30.90625 -2.890625 C 30.90625 -2.035156 30.628906 -1.335938 30.078125 -0.796875 C 29.523438 -0.265625 28.75 0 27.75 0 C 26.820312 0 26.0625 -0.265625 25.46875 -0.796875 C 24.882812 -1.335938 24.59375 -2.035156 24.59375 -2.890625 L 24.59375 -15.546875 C 24.59375 -17.835938 24.046875 -19.691406 22.953125 -21.109375 C 21.859375 -22.535156 20.128906 -23.25 17.765625 -23.25 C 17.054688 -23.25 16.210938 -23.054688 15.234375 -22.671875 C 14.253906 -22.285156 13.289062 -21.703125 12.34375 -20.921875 C 11.40625 -20.148438 10.628906 -19.171875 10.015625 -17.984375 C 9.410156 -16.796875 9.109375 -15.390625 9.109375 -13.765625 L 9.109375 -2.828125 C 9.109375 -0.941406 8.085938 0 6.046875 0 C 5.085938 0 4.300781 -0.25 3.6875 -0.75 C 3.082031 -1.25 2.78125 -1.941406 2.78125 -2.828125 L 2.78125 -25.421875 C 2.78125 -26.347656 3.101562 -27.050781 3.75 -27.53125 C 4.394531 -28.007812 5.125 -28.25 5.9375 -28.25 C 6.71875 -28.25 7.441406 -28.007812 8.109375 -27.53125 C 8.773438 -27.050781 9.109375 -26.382812 9.109375 -25.53125 L 9.109375 -25.140625 C 10.691406 -26.617188 12.332031 -27.597656 14.03125 -28.078125 C 15.738281 -28.554688 17.296875 -28.796875 18.703125 -28.796875 Z M 18.703125 -28.796875 "/></g></g></g></g></g></g></g></g></svg>